<?xml version="1.0" encoding="UTF-8"?>
<svg id="Layer_1" xmlns="http://www.w3.org/2000/svg" version="1.1" viewBox="0 0 287 28">
  <!-- Generator: Adobe Illustrator 29.7.1, SVG Export Plug-In . SVG Version: 2.1.1 Build 8)  -->
  <defs>
    <style>
      .st0 {
        fill: #fff;
      }
    </style>
  </defs>
  <path class="st0" d="M.69,6.69v-2.01h5.58v-2.07c0-.76.35-1.2,1.06-1.31l3.67-.55v3.94h5.61v2.01H.69ZM8.36,21.39c-2.23,0-3.96-.46-5.2-1.39s-1.87-2.25-1.87-3.98v-2.77c0-1.75.62-3.09,1.87-4.01,1.24-.92,2.98-1.39,5.2-1.39h.58c2.2,0,3.93.46,5.19,1.39,1.25.92,1.88,2.26,1.88,4.01v2.77c0,1.73-.63,3.06-1.88,3.98-1.25.92-2.98,1.39-5.19,1.39h-.58ZM11.28,13.26c0-2.28-.78-3.41-2.34-3.41h-.58c-1.56,0-2.34,1.14-2.34,3.41v2.77c0,2.26.78,3.38,2.34,3.38h.58c1.56,0,2.34-1.13,2.34-3.38v-2.77ZM18.25,26.67V2.9c0-.33.12-.65.35-.95.23-.3.52-.49.86-.57l3.52-.64v11.06h3.91l-.36,1.6c-.04.16-.13.29-.27.39s-.3.16-.49.16h-2.79v12.72h-4.73Z"/>
  <path class="st0" d="M35.94,20.02c-2.61,0-4.58-.57-5.9-1.72-1.32-1.15-1.99-2.82-1.99-5.02v-4.32c0-2.2.66-3.87,1.99-5.02,1.32-1.15,3.29-1.72,5.9-1.72h.61c2.63,0,4.6.57,5.92,1.72,1.31,1.15,1.97,2.82,1.97,5.02v4.32c0,2.2-.66,3.87-1.97,5.02s-3.29,1.72-5.92,1.72h-.61ZM39.7,8.94c0-3.11-1.05-4.67-3.16-4.67h-.61c-2.1,0-3.15,1.56-3.15,4.67v4.35c0,3.11,1.05,4.67,3.15,4.67h.61c2.1,0,3.16-1.56,3.16-4.67v-4.35ZM47.07,26.67V2.9c0-.33.12-.65.35-.95.23-.3.52-.49.86-.57l3.52-.64v25.93h-4.73Z"/>
  <path class="st0" d="M66.31,18.77h-4.85v-3.59h-5.95v-2.04h5.16c2.53,0,4.86-.03,6.99-.1s3.98-.21,5.54-.42v1.69c-.91.21-1.93.38-3.05.5s-2.4.21-3.84.29v3.68ZM56.48,7.1v-1.23c0-1.63.65-2.83,1.94-3.59,1.29-.76,3.07-1.14,5.34-1.14h.91c2.26,0,4.04.39,5.34,1.17,1.29.78,1.94,1.98,1.94,3.62v1.11c0,1.63-.65,2.84-1.94,3.62-1.29.78-3.07,1.17-5.34,1.17h-.91c-2.27,0-4.05-.38-5.34-1.14-1.29-.76-1.94-1.95-1.94-3.59ZM79.44,25.89c-.04.14-.13.25-.27.35-.14.1-.29.15-.46.15h-16.32c-.97,0-1.65-.22-2.05-.67-.39-.45-.59-1.06-.59-1.84v-3.82h4.79v3.7c0,.21.06.36.17.45.11.09.25.13.41.13h14.65l-.33,1.55ZM63.79,9.78h.85c.83,0,1.47-.22,1.91-.67.44-.45.67-1.17.67-2.16v-.93c0-.99-.22-1.71-.67-2.16-.45-.45-1.08-.67-1.91-.67h-.85c-.83,0-1.47.19-1.91.58-.45.39-.67,1.08-.67,2.07v1.28c0,.99.22,1.68.67,2.07.44.39,1.08.58,1.91.58ZM74.07,21.13v-2.16h-4.85v-1.98h4.85V2.9c0-.33.12-.65.35-.95.23-.3.52-.49.86-.57l3.52-.64v20.39h-4.73Z"/>
  <path class="st0" d="M91.12,18.51c1.64,0,3.3-.07,4.99-.2,1.69-.14,3.34-.42,4.96-.85V2.87c0-.31.11-.62.33-.92.22-.3.52-.49.88-.57l3.52-.64v25.93h-4.73v-7.44c-1.48.51-3.08.85-4.82,1.04-1.74.19-3.45.28-5.13.28h-4.61c-1.03,0-1.79-.25-2.26-.76s-.71-1.19-.71-2.04v-7.26h9.1v-6.04h-9.1v-2.04h13.83v10.01h-9.1v5.43c0,.21.07.38.2.5.13.12.29.17.47.17h2.18Z"/>
  <path class="st0" d="M110.11,21.07h9.95v-4.38c0-.31.11-.59.33-.83.22-.24.54-.36.94-.36h3.7v5.57h10.04l-.3,1.55c-.04.14-.13.25-.27.35-.14.1-.3.15-.49.15h-23.91v-2.04ZM112.39,4.42v-2.04h20.6l-.3,1.52c-.04.16-.14.28-.29.38-.15.1-.31.15-.47.15h-6.95v1.75c0,.97.25,1.91.74,2.8s1.17,1.71,2.02,2.45c.85.74,1.83,1.39,2.94,1.95,1.11.56,2.27,1,3.49,1.31l-1.18,1.81c-1.07-.25-2.12-.57-3.14-.95-1.02-.38-1.99-.81-2.9-1.28-.91-.48-1.74-.99-2.49-1.55-.75-.55-1.39-1.14-1.91-1.76-.53.62-1.16,1.21-1.91,1.76s-1.58,1.07-2.49,1.55-1.88.9-2.9,1.28c-1.02.38-2.07.7-3.14.95l-1.18-1.81c1.21-.31,2.38-.75,3.49-1.31,1.11-.56,2.09-1.22,2.94-1.95.85-.74,1.52-1.56,2.02-2.45s.74-1.83.74-2.8v-1.75h-7.74Z"/>
  <path class="st0" d="M162.39,21.07l-.3,1.55c-.04.14-.13.25-.27.35-.14.1-.3.15-.49.15h-23.91v-2.04h24.97ZM140.06,14.22V2.08h19.75l-.33,1.52c-.04.16-.13.28-.27.38-.14.1-.29.15-.46.15h-13.96v4.35h14.56v2.04h-14.56v3.79c0,.21.07.38.2.5.13.12.29.17.47.17h14.8l-.3,1.52c-.04.16-.14.28-.29.38-.15.1-.31.15-.47.15h-16.17c-1.03,0-1.79-.26-2.26-.77-.48-.52-.71-1.19-.71-2.03Z"/>
  <path class="st0" d="M180.34,20.02c-2.61,0-4.58-.57-5.9-1.72-1.32-1.15-1.99-2.82-1.99-5.02v-4.32c0-2.2.66-3.87,1.99-5.02,1.32-1.15,3.29-1.72,5.9-1.72h.61c2.63,0,4.6.57,5.92,1.72,1.31,1.15,1.97,2.82,1.97,5.02v4.32c0,2.2-.66,3.87-1.97,5.02s-3.29,1.72-5.92,1.72h-.61ZM184.11,8.94c0-3.11-1.05-4.67-3.16-4.67h-.61c-2.1,0-3.15,1.56-3.15,4.67v4.35c0,3.11,1.05,4.67,3.15,4.67h.61c2.1,0,3.16-1.56,3.16-4.67v-4.35ZM191.48,26.67V2.9c0-.33.12-.65.35-.95.23-.3.52-.49.87-.57l3.52-.64v25.93h-4.73Z"/>
  <path class="st0" d="M224.88,13.9l-.3,1.55c-.04.14-.11.25-.2.35-.09.1-.23.15-.41.15h-24.06v-2.04h4.91v-3.06c-1.9-.74-2.85-2.06-2.85-3.97v-.82c0-1.67.73-2.9,2.2-3.68,1.47-.78,3.76-1.17,6.87-1.17h2.61c3.11,0,5.41.39,6.87,1.17,1.47.78,2.2,2,2.2,3.68v.82c0,1.89-.95,3.21-2.85,3.97v3.06h5ZM213.99,17.4c3.05,0,5.27.39,6.66,1.18,1.38.79,2.08,1.93,2.08,3.43v.64c0,1.5-.69,2.64-2.08,3.43-1.39.79-3.61,1.18-6.66,1.18h-3.28c-3.05,0-5.27-.4-6.66-1.2-1.39-.8-2.08-1.94-2.08-3.44v-.58c0-1.5.69-2.64,2.08-3.44,1.38-.8,3.6-1.2,6.66-1.2h3.28ZM211.05,3.25c-1.52,0-2.62.24-3.31.73-.69.49-1.03,1.2-1.03,2.13v.7c0,.95.34,1.67,1.03,2.14s1.79.71,3.31.71h2.61c1.52,0,2.62-.24,3.31-.71s1.03-1.19,1.03-2.14v-.7c0-.93-.34-1.64-1.03-2.13-.69-.49-1.79-.73-3.31-.73h-2.61ZM206.71,22.62c0,.86.3,1.5.9,1.94.6.44,1.64.66,3.14.66h3.22c1.5,0,2.54-.22,3.14-.66s.89-1.08.89-1.94v-.58c0-.84-.3-1.48-.89-1.93s-1.64-.67-3.14-.67h-3.22c-1.5,0-2.54.22-3.14.67-.6.45-.9,1.09-.9,1.93v.58ZM213.65,11.71h-3.38c-.25,0-.49,0-.71-.03v2.22h5.58v-2.22c-.24.02-.49.03-.73.03h-.76Z"/>
  <path class="st0" d="M242.23,16.11c-2.53,0-4.41-.49-5.64-1.46-1.23-.97-1.85-2.41-1.85-4.32v-2.63c0-1.91.62-3.34,1.85-4.32,1.23-.97,3.11-1.46,5.64-1.46h.58c2.53,0,4.41.49,5.64,1.46,1.23.97,1.85,2.41,1.85,4.32v2.63c0,1.91-.62,3.34-1.85,4.32-1.23.97-3.11,1.46-5.64,1.46h-.58ZM258.13,25.89c-.04.14-.13.25-.27.35s-.29.15-.45.15h-15.84c-.97,0-1.65-.22-2.05-.67-.39-.45-.59-1.06-.59-1.84v-5.78h4.79v5.66c0,.21.06.36.17.45.11.09.25.13.41.13h14.17l-.33,1.55ZM245.57,7.68c0-1.32-.2-2.27-.61-2.84-.41-.57-1.12-.86-2.15-.86h-.58c-1.03,0-1.75.29-2.15.86-.4.57-.61,1.52-.61,2.84v2.68c0,1.32.2,2.27.61,2.84.4.57,1.12.86,2.15.86h.58c1.03,0,1.75-.29,2.15-.86.4-.57.61-1.52.61-2.84v-2.68ZM252.76,19.44V2.9c0-.33.12-.65.35-.95.23-.3.52-.49.86-.57l3.52-.64v7.35h3.61l-.36,1.6c-.04.16-.13.29-.27.39s-.3.16-.49.16h-2.49v9.19h-4.73Z"/>
  <path class="st0" d="M281.7,26.67v-15.08h-2.06v14.61h-4.55v-7.58c-.97.33-2.05.56-3.25.69s-2.34.19-3.43.19h-2.61c-1.03,0-1.79-.25-2.26-.76-.48-.51-.71-1.19-.71-2.04V3.43c0-.29.11-.56.33-.8.22-.24.53-.36.91-.36h3.31v14.53c0,.21.07.38.2.5s.29.17.47.17h.36c1.01,0,2.09-.03,3.23-.1,1.14-.07,2.29-.25,3.44-.54V3.05c0-.31.11-.62.33-.92.22-.3.5-.48.85-.54l3.37-.55v8.4h2.06V2.78c0-.31.11-.62.33-.93.22-.31.5-.5.85-.55l3.43-.55v25.93h-4.61Z"/>
</svg>