<?xml version="1.0" encoding="UTF-8"?>
<svg xmlns="http://www.w3.org/2000/svg" viewBox="0 0 130 82">
  <defs>
    <style>
      .cls-1 {
        fill: #2e3191;
      }

      .cls-2 {
        fill: #fff;
      }
    </style>
  </defs>
  <g id="Layer_2" data-name="Layer 2">
    <rect class="cls-1" width="130" height="82"/>
  </g>
  <g id="Layer_1" data-name="Layer 1">
    <path class="cls-2" d="M94.87,48.16h3.7l6.14,16.42h-3.75l-1.24-3.66h-6.14l-1.29,3.66h-3.66l6.23-16.42ZM94.52,58.23h4.25l-2.07-6.02h-.05l-2.14,6.02Z"/>
    <g>
      <path class="cls-2" d="M71.73,24.98h9.15v11.32h-7.2c-.68,0-1.17-.17-1.48-.5s-.47-.79-.47-1.35v-9.46ZM75.27,34.94h2.51v-8.61h-2.94v8.17c0,.14.04.25.13.33s.19.12.31.12ZM82.83,40.85v-15.74c0-.22.08-.43.23-.63.15-.2.34-.33.57-.38l2.31-.42v6.04h2.57l-.24,1.06c-.03.1-.09.19-.18.26-.09.07-.2.11-.32.11h-1.83v9.69h-3.1Z"/>
      <path class="cls-2" d="M105.72,32.85l-.2,1.02c-.03.09-.09.17-.18.23s-.2.1-.32.1h-5.39v3.4h-3.26v-3.4h-7.02v-1.35h16.37ZM98.36,31.68h-1.71c-2.04,0-3.54-.28-4.5-.85-.96-.57-1.44-1.47-1.44-2.72v-.54c0-1.25.48-2.16,1.44-2.72.96-.57,2.46-.85,4.5-.85h1.71c2.04,0,3.54.28,4.5.85s1.44,1.47,1.44,2.72v.54c0,1.25-.48,2.16-1.44,2.72-.96.57-2.46.85-4.5.85ZM104.31,40.33c-.03.09-.09.17-.18.23-.09.06-.19.1-.3.1h-10.94c-.64,0-1.08-.15-1.34-.44-.26-.3-.39-.7-.39-1.22v-3.44h3.14v3.36c0,.14.04.24.11.3.07.06.16.09.27.09h9.84l-.22,1.02ZM96.65,25.34c-.99,0-1.72.19-2.17.56-.45.37-.68.92-.68,1.64v.58c0,.73.22,1.28.68,1.65.45.37,1.17.55,2.17.55h1.71c1,0,1.72-.18,2.17-.55s.68-.92.68-1.65v-.58c0-.72-.23-1.27-.68-1.64-.45-.37-1.17-.56-2.17-.56h-1.71Z"/>
      <path class="cls-2" d="M119.22,36.45v-2.99c-.88.26-1.85.45-2.92.57s-2.16.18-3.26.18h-3.48c-.64,0-1.08-.15-1.34-.44-.26-.3-.39-.7-.39-1.22v-7.88h9.29l-.22,1.02c-.03.09-.09.17-.18.23s-.19.1-.3.1h-5.49v2.74h5.75v1.27h-5.75v2.43c0,.14.04.24.11.3.07.06.16.09.27.09h1.73c1.09,0,2.15-.04,3.18-.12s2.04-.24,3-.48v-7.14c0-.22.08-.43.23-.63.15-.2.34-.33.57-.38l2.31-.42v12.76h-3.1ZM122.54,40.33c-.03.09-.09.17-.18.23-.09.06-.19.1-.3.1h-10.38c-.64,0-1.08-.15-1.34-.44-.26-.3-.39-.7-.39-1.22v-3.44h3.14v3.36c0,.14.04.24.11.3.07.06.16.09.27.09h9.29l-.22,1.02Z"/>
    </g>
    <path class="cls-2" d="M49.81,40.26h-8.32l-3.4-14.87,30.27-11.02v-2.63s-22.5,8.19-22.5,8.19v-3.21s-21.46,7.82-21.46,7.82v3.21s-21.15,7.7-21.15,7.7v2.63s29.71-10.81,29.71-10.81l-2.97,13h-8.32c-.64,0-1.18.45-1.32,1.05l-2.8,12.65v16h36.42v-16l-2.81-12.65c-.14-.6-.68-1.05-1.32-1.05M34.23,53.96h-13.6l2.34-10.68h11.26v10.68M37.25,53.96v-10.68h11.27l2.34,10.68h-13.61Z"/>
  </g>
</svg>