<?xml version="1.0" encoding="UTF-8"?>
<svg xmlns="http://www.w3.org/2000/svg" viewBox="0 0 130 82">
  <defs>
    <style>
      .cls-1 {
        fill: #ef4e30;
      }

      .cls-2 {
        fill: #fff;
      }
    </style>
  </defs>
  <g id="Layer_2" data-name="Layer 2">
    <rect class="cls-1" width="130" height="82"/>
  </g>
  <g id="Layer_1" data-name="Layer 1">
    <path class="cls-2" d="M99.85,9.44H22.85c-.87,0-1.59.6-1.78,1.41l-3.72,18.45v14.62h11.96v.55c0,4.02,3.26,7.28,7.28,7.28s7.28-3.26,7.28-7.28v-.55h32.81v.51c0,4.02,3.26,7.28,7.28,7.28s7.28-3.26,7.28-7.28v-.51h17.62v-25.47c0-4.98-4.04-9.01-9.01-9.01M30.3,37.24h-8.88v-7.49s3.41-16.25,3.41-16.25h5.48v23.74M48.94,25.99h-14.63v-12.48h14.63v12.48M67.58,25.99h-14.63v-12.48h14.63v12.48M86.21,25.99h-14.63v-12.48h14.63v12.48M90.22,25.99v-12.48h9.63c2.72,0,4.93,2.21,4.93,4.94v7.54s-14.56,0-14.56,0Z"/>
    <g>
      <path class="cls-2" d="M52.32,62.96c0,.95.1,1.81.3,2.56.2.75.48,1.42.83,2,.35.58.77,1.08,1.25,1.52.48.43.98.79,1.53,1.07l-.77,1.12c-.93-.46-1.79-1.04-2.58-1.73-.79-.69-1.48-1.44-2.06-2.25-.53.89-1.21,1.72-2.06,2.49-.84.77-1.79,1.42-2.85,1.95l-.91-1.06c.66-.39,1.25-.84,1.77-1.37.52-.53.97-1.12,1.33-1.78s.65-1.36.84-2.12c.19-.76.29-1.56.29-2.39v-3.3c0-.21.07-.39.21-.55s.34-.24.6-.24h2.28v4.09ZM57.01,74.93v-15.74c0-.22.07-.43.22-.63s.33-.33.55-.38l2.24-.42v6.43h2.49l-.23,1.06c-.03.1-.08.19-.17.26-.09.07-.19.11-.31.11h-1.78v9.31h-3.01Z"/>
      <path class="cls-2" d="M75.67,75.12v-4.21h-9.62v-1.35h4.88v-1.62h-6.33v-1.35h15.89l-.19,1.02c-.03.09-.08.17-.17.23s-.19.1-.31.1h-5.71v1.62h4.58v5.56h-3.01ZM66.28,63.71v-4.67c0-.19.07-.37.21-.53s.33-.24.58-.24h2.22v2.2h6.45v-1.43c0-.19.07-.37.21-.53.14-.16.33-.24.58-.24h2.22v7.11h-10.79c-.62,0-1.05-.15-1.3-.44s-.38-.7-.38-1.22ZM69.66,64.02h6.08v-2.24h-6.45v1.85c0,.14.04.24.11.3.07.06.16.09.26.09Z"/>
    </g>
  </g>
</svg>