<?xml version="1.0" encoding="UTF-8"?>
<svg xmlns="http://www.w3.org/2000/svg" viewBox="0 0 130 82">
  <defs>
    <style>
      .cls-1 {
        fill: #fff;
      }

      .cls-2 {
        fill: #37b34a;
      }
    </style>
  </defs>
  <g id="Layer_2" data-name="Layer 2">
    <rect class="cls-2" width="130" height="82"/>
  </g>
  <g id="Layer_1" data-name="Layer 1">
    <path class="cls-1" d="M99.85,9.44H22.85c-.87,0-1.59.6-1.78,1.41l-3.72,18.45v14.62h11.96v.55c0,4.02,3.26,7.28,7.28,7.28s7.28-3.26,7.28-7.28v-.55h32.81v.51c0,4.02,3.26,7.28,7.28,7.28s7.28-3.26,7.28-7.28v-.51h17.62v-25.47c0-4.98-4.04-9.01-9.01-9.01M30.3,37.24h-8.88v-7.49s3.41-16.25,3.41-16.25h5.48v23.74M48.94,25.99h-14.63v-12.48h14.63v12.48M67.58,25.99h-14.63v-12.48h14.63v12.48M86.21,25.99h-14.63v-12.48h14.63v12.48M90.22,25.99v-12.48h9.63c2.72,0,4.93,2.21,4.93,4.94v7.54s-14.56,0-14.56,0Z"/>
    <g>
      <path class="cls-1" d="M48.83,67.05v-3.82h-.89v3.82h-2.9v-.73c-.28.08-.59.14-.93.2-.33.06-.69.11-1.05.15-.37.04-.74.07-1.11.09-.37.02-.73.03-1.08.03h-5.04v-1.35h1.24l-.13-5.33h-.99v-1.31h8.65l-.19.99c-.03.09-.07.17-.13.23-.06.06-.15.1-.28.1h-.5l-.06,5.21c.28-.03.56-.06.82-.1.26-.04.52-.09.78-.16v-5.77c0-.21.07-.41.21-.61.14-.2.32-.32.54-.36l2.14-.37v3.84h.89v-2.68c0-.21.07-.41.21-.62s.32-.33.54-.37l2.18-.37v9.29h-2.93ZM51.73,71.98h-9.25v1.25c0,.14.04.24.11.3.07.06.16.09.26.09h9.54l-.21.98c-.03.09-.08.17-.17.23-.09.06-.19.1-.29.1h-10.56c-.62,0-1.05-.15-1.3-.44-.25-.3-.38-.7-.38-1.22v-2.61h9.25v-1.53h-9.25v-1.31h12.26v4.15ZM39.74,65.43h1.04l.02-5.33h-1.16l.1,5.33Z"/>
      <path class="cls-1" d="M60.48,69.52c1.04,0,2.1-.04,3.18-.13,1.07-.09,2.13-.28,3.16-.56v-9.65c0-.21.07-.41.21-.61s.33-.33.56-.38l2.24-.42v17.17h-3.01v-4.92c-.94.33-1.96.56-3.07.69-1.11.12-2.2.18-3.26.18h-2.93c-.66,0-1.14-.17-1.44-.5-.3-.33-.45-.79-.45-1.35v-4.81h5.79v-4h-5.79v-1.35h8.81v6.62h-5.79v3.59c0,.14.04.25.12.33s.18.12.3.12h1.39Z"/>
      <path class="cls-1" d="M89.91,71.03l-.19,1.02c-.03.1-.09.18-.18.24-.1.06-.2.09-.3.09h-15.22v-1.35h15.89ZM83.47,61.28c0,.66.16,1.28.47,1.88s.74,1.15,1.28,1.64c.54.5,1.17.93,1.87,1.31s1.45.67,2.22.88l-.75,1.2c-.68-.17-1.35-.38-2-.64-.65-.26-1.26-.55-1.84-.87-.58-.32-1.11-.67-1.58-1.05-.48-.38-.88-.78-1.22-1.19-.33.41-.74.81-1.22,1.19s-1,.73-1.58,1.05c-.58.32-1.19.61-1.84.87-.65.26-1.32.47-2,.64l-.75-1.2c.77-.21,1.51-.5,2.22-.88.71-.38,1.33-.82,1.87-1.31.54-.5.97-1.04,1.28-1.64s.47-1.23.47-1.88v-1.83c0-.21.07-.39.21-.55s.34-.24.6-.24h2.28v2.63Z"/>
    </g>
  </g>
</svg>